<?xml version="1.0" encoding="UTF-8"?>
<svg width="160" height="40" viewBox="0 0 160 40" xmlns="http://www.w3.org/2000/svg">
    <!-- Frame 1: Idle -->
    <g transform="translate(0,0)">
        <circle cx="20" cy="20" r="15" fill="#00ff9d"/>
        <circle cx="20" cy="20" r="12" fill="#00cc7d"/>
        <circle cx="16" cy="16" r="3" fill="#ffffff"/>
        <path d="M12 24 Q20 28 28 24" stroke="#ffffff" fill="none" stroke-width="2"/>
    </g>
    
    <!-- Frame 2: Jump Start -->
    <g transform="translate(40,0)">
        <circle cx="20" cy="20" r="15" fill="#00ff9d"/>
        <circle cx="20" cy="20" r="12" fill="#00cc7d"/>
        <circle cx="16" cy="16" r="3" fill="#ffffff"/>
        <path d="M12 24 Q20 30 28 24" stroke="#ffffff" fill="none" stroke-width="2"/>
    </g>
    
    <!-- Frame 3: Mid Jump -->
    <g transform="translate(80,0)">
        <circle cx="20" cy="20" r="15" fill="#00ff9d"/>
        <circle cx="20" cy="20" r="12" fill="#00cc7d"/>
        <circle cx="16" cy="16" r="3" fill="#ffffff"/>
        <path d="M12 24 Q20 32 28 24" stroke="#ffffff" fill="none" stroke-width="2"/>
    </g>
    
    <!-- Frame 4: Landing -->
    <g transform="translate(120,0)">
        <circle cx="20" cy="20" r="15" fill="#00ff9d"/>
        <circle cx="20" cy="20" r="12" fill="#00cc7d"/>
        <circle cx="16" cy="16" r="3" fill="#ffffff"/>
        <path d="M12 24 Q20 26 28 24" stroke="#ffffff" fill="none" stroke-width="2"/>
    </g>
</svg> 